name rise44.8762peak52.3436fall86.788.mot
datacolumns 19
datarows 26
range 8.33663500000000 8.37830400000000
endheader
time	ground_force1_vx	ground_force1_vy	ground_force1_vz	ground_force1_px	ground_force1_py	ground_force1_pz	ground_force2_vx	ground_force2_vy	ground_force2_vz	ground_force2_px	ground_force2_py	ground_force2_pz	ground_torque1_x	ground_torque1_y	ground_torque1_z	ground_torque2_x	ground_torque2_y	ground_torque2_z	
8.33663500000000	-43.15594900000000	785.10027200000002	60.83171500000000	0.07346400000000	0.00000000000000	0.09863700000000	-4.88860100000000	22.03430600000000	3.70745300000000	0.00000000000000	0.00000000000000	0.00000000000000	0.00000000000000	19.15341600000000	0.00000000000000	0.00000000000000	0.76331400000000	0.00000000000000	
8.33829700000000	-43.43820600000000	783.53410499999995	60.72849200000000	0.07292800000000	0.00000000000000	0.09857900000000	-5.92833100000000	28.31507800000000	4.56439100000000	0.26345400000000	0.00000000000000	-0.08882000000000	0.00000000000000	19.07039800000000	0.00000000000000	0.00000000000000	1.63042300000000	0.00000000000000	
8.33996600000000	-43.72315500000000	781.84757900000000	60.60267300000000	0.07240700000000	0.00000000000000	0.09851900000000	-6.94514200000000	35.05778300000000	5.42769900000000	0.27221200000000	0.00000000000000	-0.08941500000000	0.00000000000000	18.98532600000000	0.00000000000000	0.00000000000000	2.00846100000000	0.00000000000000	
8.34163400000000	-44.01107500000000	780.03811399999995	60.45355000000000	0.07190200000000	0.00000000000000	0.09845400000000	-7.90083500000000	42.13838900000000	6.27020600000000	0.27993100000000	0.00000000000000	-0.08994100000000	0.00000000000000	18.89830800000000	0.00000000000000	0.00000000000000	2.39519200000000	0.00000000000000	
8.34330100000000	-44.30222500000000	778.10318600000005	60.28044600000000	0.07141100000000	0.00000000000000	0.09838500000000	-8.76062100000000	49.43375800000000	7.06665800000000	0.28679000000000	0.00000000000000	-0.09041300000000	0.00000000000000	18.80945100000000	0.00000000000000	0.00000000000000	2.77985500000000	0.00000000000000	
8.34496900000000	-44.59684100000000	776.04033400000003	60.08272300000000	0.07093600000000	0.00000000000000	0.09831300000000	-9.49537000000000	56.83107000000000	7.79539400000000	0.29292700000000	0.00000000000000	-0.09084100000000	0.00000000000000	18.71886000000000	0.00000000000000	0.00000000000000	3.15259000000000	0.00000000000000	
8.34663700000000	-44.89513000000000	773.84715700000004	59.85977800000000	0.07047500000000	0.00000000000000	0.09823600000000	-10.08314900000000	64.23526699999999	8.43953800000000	0.29845200000000	0.00000000000000	-0.09123200000000	0.00000000000000	18.62663500000000	0.00000000000000	0.00000000000000	3.50505600000000	0.00000000000000	
8.34829700000000	-45.19727300000000	771.52131999999995	59.61105400000000	0.07002800000000	0.00000000000000	0.09815400000000	-10.50996400000000	71.57395500000000	8.98763900000000	0.30345000000000	0.00000000000000	-0.09159400000000	0.00000000000000	18.53287500000000	0.00000000000000	0.00000000000000	3.83083100000000	0.00000000000000	
8.34996500000000	-45.50341700000000	769.06055300000003	59.33603500000000	0.06959600000000	0.00000000000000	0.09806800000000	-10.76974200000000	78.79968100000001	9.43376300000000	0.30799200000000	0.00000000000000	-0.09193100000000	0.00000000000000	18.43767400000000	0.00000000000000	0.00000000000000	4.12559800000000	0.00000000000000	
8.35163600000000	-45.81367300000000	766.46265600000004	59.03425600000000	0.06917800000000	0.00000000000000	0.09797800000000	-10.86367900000000	85.88977800000001	9.77712500000000	0.31213500000000	0.00000000000000	-0.09224700000000	0.00000000000000	18.34112000000000	0.00000000000000	0.00000000000000	4.38712900000000	0.00000000000000	
8.35329900000000	-46.12811600000000	763.72549900000001	58.70530000000000	0.06877400000000	0.00000000000000	0.09788300000000	-10.79909400000000	92.84419400000000	10.02136100000000	0.31592700000000	0.00000000000000	-0.09254600000000	0.00000000000000	18.24329800000000	0.00000000000000	0.00000000000000	4.61509600000000	0.00000000000000	
8.35496700000000	-46.44677900000000	760.84702300000004	58.34880700000000	0.06838200000000	0.00000000000000	0.09778300000000	-10.58799200000000	99.68183500000001	10.17355800000000	0.31940700000000	0.00000000000000	-0.09283100000000	0.00000000000000	18.14428700000000	0.00000000000000	0.00000000000000	4.81075600000000	0.00000000000000	
8.35663400000000	-46.76965300000000	757.82524200000000	57.96446900000000	0.06800400000000	0.00000000000000	0.09767800000000	-10.24548400000000	106.43598799999999	10.24317500000000	0.32260800000000	0.00000000000000	-0.09310300000000	0.00000000000000	18.04415800000000	0.00000000000000	0.00000000000000	4.97656600000000	0.00000000000000	
8.35830100000000	-47.09668300000000	754.65824399999997	57.55203900000000	0.06763700000000	0.00000000000000	0.09756800000000	-9.78823200000000	113.14936000000000	10.24095800000000	0.32555800000000	0.00000000000000	-0.09336400000000	0.00000000000000	17.94297900000000	0.00000000000000	0.00000000000000	5.11575500000000	0.00000000000000	
8.35996300000000	-47.42776300000000	751.34419500000001	57.11133000000000	0.06728200000000	0.00000000000000	0.09745300000000	-9.23304200000000	119.86920100000000	10.17793100000000	0.32828200000000	0.00000000000000	-0.09361700000000	0.00000000000000	17.84080900000000	0.00000000000000	0.00000000000000	5.23192200000000	0.00000000000000	
8.36163700000000	-47.76273800000000	747.88133700000003	56.64221700000000	0.06693800000000	0.00000000000000	0.09733300000000	-8.59568300000000	126.64289200000000	10.06454600000000	0.33080100000000	0.00000000000000	-0.09386200000000	0.00000000000000	17.73770100000000	0.00000000000000	0.00000000000000	5.32866300000000	0.00000000000000	
8.36329600000000	-48.10140100000000	744.26798799999995	56.14464200000000	0.06660400000000	0.00000000000000	0.09720800000000	-7.88999300000000	133.51426300000000	9.91002200000000	0.33313100000000	0.00000000000000	-0.09410100000000	0.00000000000000	17.63369900000000	0.00000000000000	0.00000000000000	5.40927000000000	0.00000000000000	
8.36496300000000	-48.44348700000000	740.50255000000004	55.61861200000000	0.06628000000000	0.00000000000000	0.09707700000000	-7.12729200000000	140.52079100000000	9.72189100000000	0.33528900000000	0.00000000000000	-0.09433300000000	0.00000000000000	17.52884100000000	0.00000000000000	0.00000000000000	5.47651200000000	0.00000000000000	
8.36663300000000	-48.78867700000000	736.58350299999995	55.06420100000000	0.06596600000000	0.00000000000000	0.09694200000000	-6.31608600000000	147.69174699999999	9.50575100000000	0.33728900000000	0.00000000000000	-0.09456200000000	0.00000000000000	17.42315800000000	0.00000000000000	0.00000000000000	5.53248600000000	0.00000000000000	
8.36830100000000	-49.13659000000000	732.50941300000000	54.48155400000000	0.06565900000000	0.00000000000000	0.09680100000000	-5.46204500000000	155.04725500000001	9.26521400000000	0.33914300000000	0.00000000000000	-0.09478600000000	0.00000000000000	17.31667100000000	0.00000000000000	0.00000000000000	5.57856300000000	0.00000000000000	
8.36996500000000	-49.48678600000000	728.27892999999995	53.87088600000000	0.06536000000000	0.00000000000000	0.09665500000000	-4.56818800000000	162.59816900000001	9.00200400000000	0.34086000000000	0.00000000000000	-0.09500600000000	0.00000000000000	17.20939400000000	0.00000000000000	0.00000000000000	5.61538900000000	0.00000000000000	
8.37163300000000	-49.83876300000000	723.89079500000003	53.23248400000000	0.06506800000000	0.00000000000000	0.09650400000000	-3.63525000000000	170.34663100000000	8.71618800000000	0.34245200000000	0.00000000000000	-0.09522300000000	0.00000000000000	17.10133100000000	0.00000000000000	0.00000000000000	5.64295000000000	0.00000000000000	
8.37329900000000	-50.19195700000000	719.34384100000000	52.56670400000000	0.06478200000000	0.00000000000000	0.09634800000000	-2.66214100000000	178.28714299999999	8.40648700000000	0.34392600000000	0.00000000000000	-0.09543800000000	0.00000000000000	16.99248200000000	0.00000000000000	0.00000000000000	5.66068100000000	0.00000000000000	
8.37496900000000	-50.54574100000000	714.63699799999995	51.87397600000000	0.06450200000000	0.00000000000000	0.09618600000000	-1.64647200000000	186.40797000000001	8.07062500000000	0.34528900000000	0.00000000000000	-0.09564900000000	0.00000000000000	16.88283400000000	0.00000000000000	0.00000000000000	5.66759000000000	0.00000000000000	
8.37663300000000	-50.89942400000000	709.76929800000005	51.15480300000000	0.06422600000000	0.00000000000000	0.09602000000000	-0.58507900000000	194.69272300000000	7.70570400000000	0.34654900000000	0.00000000000000	-0.09585900000000	0.00000000000000	16.77236700000000	0.00000000000000	0.00000000000000	5.66240300000000	0.00000000000000	
8.37830400000000	-51.25225000000000	704.73988199999997	50.40975600000000	0.06395400000000	0.00000000000000	0.09584800000000	0.52548400000000	203.12195900000000	7.30854500000000	0.34771100000000	0.00000000000000	-0.09606700000000	0.00000000000000	16.66105400000000	0.00000000000000	0.00000000000000	5.64370400000000	0.00000000000000	
